# xmcd CD database file
#
# Track frame offsets:
#	150
#	21777
#	42184
#	60037
#	83063
#	108339
#	128526
#	165954
#	192143
#	214720
#
# Disc length: 3201 seconds
#
# Revision: 0
# Processed by: cddbd v1.5.1PL2 Copyright (c) Steve Scherf et al.
# Submitted via: CDex 1.51
#
DISCID=6b0c7f0a
DTITLE=Tony Monaco - East to West
DYEAR=2005
DGENRE=Jazz
TTITLE0=I'll Remember Jimmy
TTITLE1=O Barquino (My Little Boat)
TTITLE2=Rudy and the Fox
TTITLE3=Recordame
TTITLE4=Don't Be That Way
TTITLE5=Donna Lee
TTITLE6=Roz da' Cat
TTITLE7=Softly as the Morning Sunrise
TTITLE8=Like Someone In Love
TTITLE9=Indiana
EXTD=YEAR: 2005
EXTT0=
EXTT1=
EXTT2=
EXTT3=
EXTT4=
EXTT5=
EXTT6=
EXTT7=
EXTT8=
EXTT9=
PLAYORDER=
